{
  "accessors": [
    {
      "bufferView": 2,
      "componentType": 5126,
      "count": 25716,
      "max": [
        1.0073537826538086,
        1.0011465549468994,
        2.5056605339050293
      ],
      "min": [
        -1.0073537826538086,
        -1.0011465549468994,
        -2.5056605339050293
      ],
      "type": "VEC3"
    },
    {
      "bufferView": 2,
      "byteOffset": 308592,
      "componentType": 5126,
      "count": 25716,
      "type": "VEC3"
    },
    {
      "bufferView": 3,
      "componentType": 5126,
      "count": 25716,
      "type": "VEC4"
    },
    {
      "bufferView": 1,
      "componentType": 5126,
      "count": 25716,
      "type": "VEC2"
    },
    {
      "bufferView": 1,
      "byteOffset": 205728,
      "componentType": 5126,
      "count": 25716,
      "type": "VEC2"
    },
    {
      "bufferView": 1,
      "byteOffset": 411456,
      "componentType": 5126,
      "count": 25716,
      "type": "VEC2"
    },
    {
      "bufferView": 0,
      "componentType": 5125,
      "count": 97824,
      "type": "SCALAR"
    },
    {
      "bufferView": 2,
      "byteOffset": 617184,
      "componentType": 5126,
      "count": 4706,
      "max": [
        1.1011067628860474,
        1.1817598342895508,
        2.5919082164764404
      ],
      "min": [
        -1.1011067628860474,
        -1.1817597150802612,
        -2.5919082164764404
      ],
      "type": "VEC3"
    },
    {
      "bufferView": 2,
      "byteOffset": 673656,
      "componentType": 5126,
      "count": 4706,
      "type": "VEC3"
    },
    {
      "bufferView": 3,
      "byteOffset": 411456,
      "componentType": 5126,
      "count": 4706,
      "type": "VEC4"
    },
    {
      "bufferView": 1,
      "byteOffset": 617184,
      "componentType": 5126,
      "count": 4706,
      "type": "VEC2"
    },
    {
      "bufferView": 1,
      "byteOffset": 654832,
      "componentType": 5126,
      "count": 4706,
      "type": "VEC2"
    },
    {
      "bufferView": 1,
      "byteOffset": 692480,
      "componentType": 5126,
      "count": 4706,
      "type": "VEC2"
    },
    {
      "bufferView": 0,
      "byteOffset": 391296,
      "componentType": 5125,
      "count": 19200,
      "type": "SCALAR"
    },
    {
      "bufferView": 2,
      "byteOffset": 730128,
      "componentType": 5126,
      "count": 6078,
      "max": [
        1.2055842876434326,
        1.246541976928711,
        2.1412651538848877
      ],
      "min": [
        -1.2055844068527222,
        -1.2465420961380005,
        -2.1412651538848877
      ],
      "type": "VEC3"
    },
    {
      "bufferView": 2,
      "byteOffset": 803064,
      "componentType": 5126,
      "count": 6078,
      "type": "VEC3"
    },
    {
      "bufferView": 3,
      "byteOffset": 486752,
      "componentType": 5126,
      "count": 6078,
      "type": "VEC4"
    },
    {
      "bufferView": 1,
      "byteOffset": 730128,
      "componentType": 5126,
      "count": 6078,
      "type": "VEC2"
    },
    {
      "bufferView": 1,
      "byteOffset": 778752,
      "componentType": 5126,
      "count": 6078,
      "type": "VEC2"
    },
    {
      "bufferView": 1,
      "byteOffset": 827376,
      "componentType": 5126,
      "count": 6078,
      "type": "VEC2"
    },
    {
      "bufferView": 0,
      "byteOffset": 468096,
      "componentType": 5125,
      "count": 27456,
      "type": "SCALAR"
    },
    {
      "bufferView": 2,
      "byteOffset": 876000,
      "componentType": 5126,
      "count": 3574,
      "max": [
        -0.0580780915915966,
        1.1405469179153442,
        2.4028775691986084
      ],
      "min": [
        -2.1094281673431396,
        -1.1405467987060547,
        -2.4028775691986084
      ],
      "type": "VEC3"
    },
    {
      "bufferView": 2,
      "byteOffset": 918888,
      "componentType": 5126,
      "count": 3574,
      "type": "VEC3"
    },
    {
      "bufferView": 3,
      "byteOffset": 584000,
      "componentType": 5126,
      "count": 3574,
      "type": "VEC4"
    },
    {
      "bufferView": 1,
      "byteOffset": 876000,
      "componentType": 5126,
      "count": 3574,
      "type": "VEC2"
    },
    {
      "bufferView": 1,
      "byteOffset": 904592,
      "componentType": 5126,
      "count": 3574,
      "type": "VEC2"
    },
    {
      "bufferView": 1,
      "byteOffset": 933184,
      "componentType": 5126,
      "count": 3574,
      "type": "VEC2"
    },
    {
      "bufferView": 0,
      "byteOffset": 577920,
      "componentType": 5125,
      "count": 16896,
      "type": "SCALAR"
    },
    {
      "bufferView": 2,
      "byteOffset": 961776,
      "componentType": 5126,
      "count": 2872,
      "max": [
        -2.0338213443756104,
        0.3878990709781647,
        2.3991146087646484
      ],
      "min": [
        -2.364503860473633,
        -0.3878990709781647,
        -2.3991146087646484
      ],
      "type": "VEC3"
    },
    {
      "bufferView": 2,
      "byteOffset": 996240,
      "componentType": 5126,
      "count": 2872,
      "type": "VEC3"
    },
    {
      "bufferView": 3,
      "byteOffset": 641184,
      "componentType": 5126,
      "count": 2872,
      "type": "VEC4"
    },
    {
      "bufferView": 1,
      "byteOffset": 961776,
      "componentType": 5126,
      "count": 2872,
      "type": "VEC2"
    },
    {
      "bufferView": 1,
      "byteOffset": 984752,
      "componentType": 5126,
      "count": 2872,
      "type": "VEC2"
    },
    {
      "bufferView": 1,
      "byteOffset": 1007728,
      "componentType": 5126,
      "count": 2872,
      "type": "VEC2"
    },
    {
      "bufferView": 0,
      "byteOffset": 645504,
      "componentType": 5125,
      "count": 12288,
      "type": "SCALAR"
    },
    {
      "bufferView": 2,
      "byteOffset": 1030704,
      "componentType": 5126,
      "count": 3896,
      "max": [
        -2.2417755126953125,
        0.2885439991950989,
        2.2864699363708496
      ],
      "min": [
        -4.400882720947266,
        -0.2885960638523102,
        -3.019052028656006
      ],
      "type": "VEC3"
    },
    {
      "bufferView": 2,
      "byteOffset": 1077456,
      "componentType": 5126,
      "count": 3896,
      "type": "VEC3"
    },
    {
      "bufferView": 3,
      "byteOffset": 687136,
      "componentType": 5126,
      "count": 3896,
      "type": "VEC4"
    },
    {
      "bufferView": 1,
      "byteOffset": 1030704,
      "componentType": 5126,
      "count": 3896,
      "type": "VEC2"
    },
    {
      "bufferView": 1,
      "byteOffset": 1061872,
      "componentType": 5126,
      "count": 3896,
      "type": "VEC2"
    },
    {
      "bufferView": 1,
      "byteOffset": 1093040,
      "componentType": 5126,
      "count": 3896,
      "type": "VEC2"
    },
    {
      "bufferView": 0,
      "byteOffset": 694656,
      "componentType": 5125,
      "count": 19968,
      "type": "SCALAR"
    }
  ],
  "asset": {
    "generator": "fab-model-conversion",
    "version": "2.0"
  },
  "bufferViews": [
    {
      "buffer": 0,
      "byteLength": 774528,
      "target": 34963
    },
    {
      "buffer": 0,
      "byteLength": 1124208,
      "byteOffset": 774528,
      "byteStride": 8,
      "target": 34962
    },
    {
      "buffer": 0,
      "byteLength": 1124208,
      "byteOffset": 1898736,
      "byteStride": 12,
      "target": 34962
    },
    {
      "buffer": 0,
      "byteLength": 749472,
      "byteOffset": 3022944,
      "byteStride": 16,
      "target": 34962
    }
  ],
  "buffers": [
    {
      "byteLength": 3772416,
      "uri": "scene.bin"
    }
  ],
  "images": [
    {
      "uri": "textures/Headphones_baseColor.png"
    },
    {
      "uri": "textures/Headphones_metallicRoughness.png"
    },
    {
      "uri": "textures/Headphones_normal.png"
    }
  ],
  "materials": [
    {
      "doubleSided": true,
      "name": "Headphones",
      "normalTexture": {
        "index": 2
      },
      "occlusionTexture": {
        "index": 1
      },
      "pbrMetallicRoughness": {
        "baseColorTexture": {
          "index": 0
        },
        "metallicRoughnessTexture": {
          "index": 1
        },
        "roughnessFactor": 0.8203792104542248
      }
    }
  ],
  "meshes": [
    {
      "name": "Wireframe.Detail_Headphones_0",
      "primitives": [
        {
          "attributes": {
            "NORMAL": 1,
            "POSITION": 0,
            "TANGENT": 2,
            "TEXCOORD_0": 3,
            "TEXCOORD_1": 4,
            "TEXCOORD_2": 5
          },
          "indices": 6,
          "material": 0,
          "mode": 4
        }
      ]
    },
    {
      "name": "Headphones.Body_Headphones_0",
      "primitives": [
        {
          "attributes": {
            "NORMAL": 8,
            "POSITION": 7,
            "TANGENT": 9,
            "TEXCOORD_0": 10,
            "TEXCOORD_1": 11,
            "TEXCOORD_2": 12
          },
          "indices": 13,
          "material": 0,
          "mode": 4
        }
      ]
    },
    {
      "name": "Cushions_Headphones_0",
      "primitives": [
        {
          "attributes": {
            "NORMAL": 15,
            "POSITION": 14,
            "TANGENT": 16,
            "TEXCOORD_0": 17,
            "TEXCOORD_1": 18,
            "TEXCOORD_2": 19
          },
          "indices": 20,
          "material": 0,
          "mode": 4
        }
      ]
    },
    {
      "name": "Adjustable.2_Headphones_0",
      "primitives": [
        {
          "attributes": {
            "NORMAL": 22,
            "POSITION": 21,
            "TANGENT": 23,
            "TEXCOORD_0": 24,
            "TEXCOORD_1": 25,
            "TEXCOORD_2": 26
          },
          "indices": 27,
          "material": 0,
          "mode": 4
        }
      ]
    },
    {
      "name": "Adjustable.1_Headphones_0",
      "primitives": [
        {
          "attributes": {
            "NORMAL": 29,
            "POSITION": 28,
            "TANGENT": 30,
            "TEXCOORD_0": 31,
            "TEXCOORD_1": 32,
            "TEXCOORD_2": 33
          },
          "indices": 34,
          "material": 0,
          "mode": 4
        }
      ]
    },
    {
      "name": "HeadBand_Headphones_0",
      "primitives": [
        {
          "attributes": {
            "NORMAL": 36,
            "POSITION": 35,
            "TANGENT": 37,
            "TEXCOORD_0": 38,
            "TEXCOORD_1": 39,
            "TEXCOORD_2": 40
          },
          "indices": 41,
          "material": 0,
          "mode": 4
        }
      ]
    }
  ],
  "nodes": [
    {
      "children": [
        1
      ],
      "matrix": [
        1.0,
        0.0,
        0.0,
        0.0,
        0.0,
        2.220446049250313e-16,
        -1.0,
        0.0,
        0.0,
        1.0,
        2.220446049250313e-16,
        0.0,
        0.0,
        0.0,
        0.0,
        1.0
      ],
      "name": "Sketchfab_model"
    },
    {
      "children": [
        2
      ],
      "matrix": [
        0.009999999776482582,
        0.0,
        0.0,
        0.0,
        0.0,
        0.0,
        0.009999999776482582,
        0.0,
        0.0,
        -0.009999999776482582,
        0.0,
        0.0,
        0.0,
        0.0,
        0.0,
        1.0
      ],
      "name": "8c033c095286467c815f0bb413f18a8e.fbx"
    },
    {
      "children": [
        3,
        5,
        7,
        9,
        11,
        13
      ],
      "name": "RootNode"
    },
    {
      "children": [
        4
      ],
      "matrix": [
        -4.371138984105016e-06,
        -99.99999999999973,
        5.960463766996327e-06,
        0.0,
        -1.6292068227841128e-05,
        -5.960463056453591e-06,
        -99.9999999999985,
        0.0,
        99.99999999999858,
        -4.371139955550163e-06,
        -1.6292067961387602e-05,
        0.0,
        0.0,
        0.0,
        0.0,
        1.0
      ],
      "name": "Wireframe.Detail"
    },
    {
      "mesh": 0,
      "name": "Wireframe.Detail_Headphones_0"
    },
    {
      "children": [
        6
      ],
      "matrix": [
        -4.371138984105016e-06,
        -99.99999999999973,
        5.960463766996327e-06,
        0.0,
        -1.6292068227841128e-05,
        -5.960463056453591e-06,
        -99.9999999999985,
        0.0,
        99.99999999999858,
        -4.371139955550163e-06,
        -1.6292067961387602e-05,
        0.0,
        0.0,
        0.0,
        0.0,
        1.0
      ],
      "name": "Headphones.Body"
    },
    {
      "mesh": 1,
      "name": "Headphones.Body_Headphones_0"
    },
    {
      "children": [
        8
      ],
      "matrix": [
        -4.371141652036525e-06,
        -100.00006103515598,
        5.9604674049747e-06,
        0.0,
        -1.6292068227841128e-05,
        -5.960463056453591e-06,
        -99.9999999999985,
        0.0,
        99.99999999999858,
        -4.371139955550163e-06,
        -1.6292067961387602e-05,
        0.0,
        0.0,
        0.0,
        0.0,
        1.0
      ],
      "name": "Cushions"
    },
    {
      "mesh": 2,
      "name": "Cushions_Headphones_0"
    },
    {
      "children": [
        10
      ],
      "matrix": [
        -4.371138984105016e-06,
        -99.99999999999973,
        5.960463766996327e-06,
        0.0,
        -1.6292068227841128e-05,
        -5.960463056453591e-06,
        -99.9999999999985,
        0.0,
        99.99999999999858,
        -4.371139955550163e-06,
        -1.6292067961387602e-05,
        0.0,
        0.0,
        0.0,
        0.0,
        1.0
      ],
      "name": "Adjustable.2"
    },
    {
      "mesh": 3,
      "name": "Adjustable.2_Headphones_0"
    },
    {
      "children": [
        12
      ],
      "matrix": [
        -4.371138984105016e-06,
        -99.99999999999973,
        5.960463766996327e-06,
        0.0,
        -1.6292068227841128e-05,
        -5.960463056453591e-06,
        -99.9999999999985,
        0.0,
        99.99999999999858,
        -4.371139955550163e-06,
        -1.6292067961387602e-05,
        0.0,
        0.0,
        0.0,
        0.0,
        1.0
      ],
      "name": "Adjustable.1"
    },
    {
      "mesh": 4,
      "name": "Adjustable.1_Headphones_0"
    },
    {
      "children": [
        14
      ],
      "matrix": [
        -3.7387148242002173e-06,
        -85.53182220458962,
        5.0980932717562964e-06,
        0.0,
        -1.3934902830087545e-05,
        -5.098092664016147e-06,
        -85.53182220458855,
        0.0,
        86.14882659911987,
        -3.7656857807118087e-06,
        -1.4035425377466768e-05,
        0.0,
        32.229976654052734,
        35.09241485595703,
        0.0,
        1.0
      ],
      "name": "HeadBand"
    },
    {
      "mesh": 5,
      "name": "HeadBand_Headphones_0"
    }
  ],
  "samplers": [
    {
      "magFilter": 9729,
      "minFilter": 9987,
      "wrapS": 10497,
      "wrapT": 10497
    }
  ],
  "scene": 0,
  "scenes": [
    {
      "name": "Sketchfab_Scene",
      "nodes": [
        0
      ]
    }
  ],
  "textures": [
    {
      "sampler": 0,
      "source": 0
    },
    {
      "sampler": 0,
      "source": 1
    },
    {
      "sampler": 0,
      "source": 2
    }
  ]
}
